<?xml version="1.0" encoding="utf-8"?>
<!-- Generator: Adobe Illustrator 15.0.0, SVG Export Plug-In . SVG Version: 6.00 Build 0)  -->
<!DOCTYPE svg PUBLIC "-//W3C//DTD SVG 1.1//EN" "http://www.w3.org/Graphics/SVG/1.1/DTD/svg11.dtd">
<svg version="1.1" id="Calque_1" xmlns="http://www.w3.org/2000/svg" xmlns:xlink="http://www.w3.org/1999/xlink" x="0px" y="0px"
	 width="20px" height="24px" viewBox="0 0 20 24" enable-background="new 0 0 20 24" xml:space="preserve">
<g>
	<path fill="#EEEBE8" d="M16.964,23.5H3.036c-1.399,0-2.536-1.137-2.536-2.535V3.033C0.5,1.637,1.636,0.5,3.036,0.5h13.928
		c1.399,0,2.535,1.137,2.535,2.533v17.932C19.499,22.363,18.363,23.5,16.964,23.5L16.964,23.5z"/>
	<path fill="#C0C0C0" d="M16.965,0C18.643,0,20,1.357,20,3.034v17.931C20,22.643,18.643,24,16.965,24H3.035
		C1.359,24,0,22.643,0,20.965V3.034C0,1.357,1.359,0,3.035,0H16.965 M16.965,1H3.035C1.913,1,1,1.912,1,3.034v17.931
		C1,22.087,1.913,23,3.035,23h13.93C18.087,23,19,22.087,19,20.965V3.034C19,1.912,18.087,1,16.965,1L16.965,1z"/>
	
		<linearGradient id="SVGID_1_" gradientUnits="userSpaceOnUse" x1="390.96" y1="-255.8398" x2="390.96" y2="-275.7158" gradientTransform="matrix(1 0 0 -1 -380.96 -260.5996)">
		<stop  offset="0.006" style="stop-color:#FFFFFE"/>
		<stop  offset="1" style="stop-color:#FFFFFE;stop-opacity:0"/>
	</linearGradient>
	<path fill="url(#SVGID_1_)" d="M1,11.966V4.035C1,1.529,1.844,1,4.115,1h11.77C18.474,1,19,1.834,19,4.035v7.931"/>
	<path fill="#24CFDE" d="M16.965,1C18.087,1,19,1.912,19,3.034v17.931C19,22.087,18.087,23,16.965,23H3.035
		C1.913,23,1,22.087,1,20.965V3.034C1,1.912,1.913,1,3.035,1H16.965 M16.965,0H3.035C1.359,0,0,1.357,0,3.034v17.931
		C0,22.643,1.359,24,3.035,24h13.93C18.643,24,20,22.643,20,20.965V3.034C20,1.357,18.643,0,16.965,0L16.965,0z"/>
	<g id="Effet_NoPatch">
	</g>
</g>
</svg>
