<?xml version="1.0" encoding="utf-8"?>
<!-- Generator: Adobe Illustrator 15.0.0, SVG Export Plug-In . SVG Version: 6.00 Build 0)  -->
<!DOCTYPE svg PUBLIC "-//W3C//DTD SVG 1.1//EN" "http://www.w3.org/Graphics/SVG/1.1/DTD/svg11.dtd">
<svg version="1.1" id="Calque_1" xmlns="http://www.w3.org/2000/svg" xmlns:xlink="http://www.w3.org/1999/xlink" x="0px" y="0px"
	 width="80px" height="24px" viewBox="0 0 80 24" enable-background="new 0 0 80 24" xml:space="preserve">
<g>
	<path fill="#2AEDFF" d="M80,22c0,1.1-0.9,2-2,2H2c-1.1,0-2-0.9-2-2V2c0-1.1,0.9-2,2-2h76c1.1,0,2,0.9,2,2V22z"/>
</g>
<g>
	<path fill="#D3117E" d="M80,21.5c0,1.1-0.9,2-2,2H2c-1.1,0-2-0.9-2-2V2c0-1.1,0.9-2,2-2h76c1.1,0,2,0.9,2,2V21.5z"/>
</g>
<g>
	<linearGradient id="SVGID_1_" gradientUnits="userSpaceOnUse" x1="39.9995" y1="0" x2="39.9995" y2="21.5005">
		<stop  offset="0" style="stop-color:#E8C6B0"/>
		<stop  offset="1" style="stop-color:#EEEBE8"/>
	</linearGradient>
	<path fill="url(#SVGID_1_)" d="M80,19.5c0,1.1-0.9,2-2,2H2c-1.1,0-2-0.9-2-2V2c0-1.1,0.9-2,2-2h76c1.1,0,2,0.9,2,2V19.5z"/>
</g>
<g opacity="0.15">
	<path d="M80,10.75v8.75c0,1.1-0.9,2-2,2H2c-1.1,0-2-0.9-2-2v-8.75"/>
</g>
<g opacity="0.05">
	<path fill="#FFFFFE" d="M0.063,10.75V2c0-1.1,0.9-2,2-2h76c1.1,0,2,0.9,2,2v8.75"/>
</g>
</svg>
