<?xml version="1.0" encoding="utf-8"?>
<!-- Generator: Adobe Illustrator 15.0.0, SVG Export Plug-In . SVG Version: 6.00 Build 0)  -->
<!DOCTYPE svg PUBLIC "-//W3C//DTD SVG 1.1//EN" "http://www.w3.org/Graphics/SVG/1.1/DTD/svg11.dtd">
<svg version="1.1" id="Calque_1" xmlns="http://www.w3.org/2000/svg" xmlns:xlink="http://www.w3.org/1999/xlink" x="0px" y="0px"
	 width="20px" height="24px" viewBox="0 0 20 24" enable-background="new 0 0 20 24" xml:space="preserve">
<g>
	<path fill="#EEEBE8" d="M3.036,0.5h13.928c1.399,0,2.536,1.137,2.536,2.535v17.932c0,1.396-1.136,2.533-2.536,2.533H3.036
		c-1.399,0-2.535-1.137-2.535-2.533V3.035C0.501,1.637,1.637,0.5,3.036,0.5L3.036,0.5z"/>
	<path fill="#C0C0C0" d="M3.035,24C1.357,24,0,22.643,0,20.966V3.035C0,1.357,1.357,0,3.035,0h13.93C18.641,0,20,1.357,20,3.035
		v17.931C20,22.643,18.641,24,16.965,24H3.035 M3.035,23h13.93C18.087,23,19,22.088,19,20.966V3.035C19,1.913,18.087,1,16.965,1
		H3.035C1.913,1,1,1.913,1,3.035v17.931C1,22.088,1.913,23,3.035,23L3.035,23z"/>
	
		<linearGradient id="SVGID_1_" gradientUnits="userSpaceOnUse" x1="388.9609" y1="-261.8398" x2="388.9609" y2="-281.7158" gradientTransform="matrix(-1 0 0 1 398.9609 290.5996)">
		<stop  offset="0.006" style="stop-color:#FFFFFE"/>
		<stop  offset="1" style="stop-color:#FFFFFE;stop-opacity:0"/>
	</linearGradient>
	<path fill="url(#SVGID_1_)" d="M19,12.034v7.931C19,22.471,18.156,23,15.885,23H4.115C1.526,23,1,22.166,1,19.965v-7.931"/>
	<path fill="#24CFDE" d="M3.035,23C1.913,23,1,22.088,1,20.966V3.035C1,1.913,1.913,1,3.035,1h13.93C18.087,1,19,1.913,19,3.035
		v17.931C19,22.088,18.087,23,16.965,23H3.035 M3.035,24h13.93C18.641,24,20,22.643,20,20.966V3.035C20,1.357,18.641,0,16.965,0
		H3.035C1.357,0,0,1.357,0,3.035v17.931C0,22.643,1.357,24,3.035,24L3.035,24z"/>
	<g id="Effet_NoPatch">
	</g>
</g>
</svg>
