<?xml version="1.0" encoding="utf-8"?>
<!-- Generator: Adobe Illustrator 15.0.2, SVG Export Plug-In . SVG Version: 6.00 Build 0)  -->
<!DOCTYPE svg PUBLIC "-//W3C//DTD SVG 1.1//EN" "http://www.w3.org/Graphics/SVG/1.1/DTD/svg11.dtd">
<svg version="1.1" id="Calque_1" xmlns="http://www.w3.org/2000/svg" xmlns:xlink="http://www.w3.org/1999/xlink" x="0px" y="0px"
	 width="24px" height="24px" viewBox="0 0 24 24" enable-background="new 0 0 24 24" xml:space="preserve">
<g>
	<path fill="#FFFBFF" d="M1.161,20.018c0.107-0.287,0.265-0.516,0.471-0.688l5.19-4.933c0.366,0.558,0.782,1.07,1.251,1.539
		c0.548,0.545,1.151,1.021,1.814,1.426l-5.313,5.054c-0.173,0.19-0.393,0.338-0.657,0.437C3.651,22.949,3.383,23,3.109,23
		c-0.281,0-0.552-0.055-0.813-0.168c-0.261-0.111-0.495-0.273-0.701-0.488c-0.198-0.209-0.348-0.439-0.448-0.695
		C1.049,21.393,1,21.132,1,20.865C1,20.584,1.053,20.303,1.161,20.018z"/>
	<path fill="#FFFBFF" d="M19.178,15.801c0.078-0.05,0.156-0.098,0.232-0.148C19.334,15.705,19.256,15.752,19.178,15.801z"/>
	<path fill="#FFFBFF" d="M19.139,15.825c-0.037,0.022-0.074,0.046-0.111,0.065c-0.313,0.186-0.643,0.35-0.979,0.487
		c0.022-0.01,0.048-0.021,0.07-0.028C18.477,16.195,18.816,16.021,19.139,15.825z"/>
	<path fill="#FFFBFF" d="M17.129,16.699c-0.006,0.001-0.012,0.003-0.018,0.004c0.01-0.003,0.016-0.004,0.022-0.008
		C17.133,16.697,17.131,16.697,17.129,16.699z"/>
	<path fill="#FFFBFF" d="M17.135,16.695c0.313-0.088,0.615-0.193,0.912-0.316C17.748,16.505,17.445,16.609,17.135,16.695z"/>
	<path fill="#FFFBFF" d="M16.951,16.746c0.053-0.014,0.107-0.029,0.16-0.043C17.061,16.717,17.004,16.732,16.951,16.746z"/>
	<path fill="#FFFBFF" d="M19.139,15.825c0.012-0.009,0.026-0.015,0.039-0.022C19.165,15.811,19.15,15.816,19.139,15.825z"/>
	<path fill="#FFFBFF" d="M15.014,1c1.1,0,2.135,0.209,3.104,0.629c0.973,0.42,1.817,0.99,2.539,1.712
		c0.723,0.721,1.295,1.569,1.713,2.544C22.791,6.861,23,7.898,23,8.999c0,1.099-0.209,2.135-0.631,3.103
		c-0.42,0.97-0.99,1.815-1.713,2.539c-0.379,0.379-0.797,0.717-1.244,1.012c0.441-0.293,0.854-0.631,1.232-1.012
		c0.481-0.486,0.897-1.027,1.246-1.619c0.346-0.589,0.614-1.226,0.805-1.902c0.189-0.677,0.287-1.385,0.287-2.121
		s-0.096-1.443-0.287-2.121c-0.189-0.679-0.459-1.313-0.805-1.904c-0.349-0.592-0.765-1.128-1.246-1.612
		c-0.486-0.484-1.023-0.899-1.615-1.247c-0.592-0.346-1.228-0.615-1.905-0.807c-0.677-0.189-1.382-0.285-2.108-0.285
		c-1.111,0-2.149,0.209-3.123,0.627c-0.682,0.292-1.303,0.663-1.863,1.107c0.564-0.451,1.189-0.826,1.878-1.125
		C12.877,1.209,13.912,1,15.014,1z"/>
	<path fill="#FFFBFF" d="M11.891,1.647c-0.681,0.292-1.303,0.664-1.863,1.107c-0.229,0.183-0.451,0.378-0.66,0.587
		C8.647,4.063,8.075,4.912,7.655,5.887c-0.42,0.975-0.63,2.013-0.63,3.112c0,1.102,0.21,2.135,0.63,3.104
		c0.42,0.969,0.991,1.814,1.714,2.536c0.723,0.723,1.567,1.293,2.538,1.711c0.97,0.422,2.005,0.631,3.106,0.631
		c0.668,0,1.315-0.078,1.937-0.232c0.055-0.014,0.108-0.029,0.161-0.043c0.009-0.002,0.015-0.005,0.023-0.008
		c0.313-0.088,0.615-0.194,0.91-0.314c0.023-0.012,0.049-0.021,0.072-0.031c0.357-0.154,0.697-0.33,1.02-0.523
		c0.014-0.01,0.027-0.016,0.039-0.023c0.078-0.048,0.158-0.098,0.232-0.148c0.443-0.295,0.854-0.633,1.232-1.012
		c0.483-0.486,0.899-1.027,1.248-1.619c0.348-0.59,0.614-1.227,0.805-1.903c0.19-0.678,0.287-1.385,0.287-2.121
		c0-0.735-0.097-1.442-0.287-2.12c-0.189-0.678-0.457-1.313-0.805-1.904c-0.349-0.591-0.767-1.128-1.248-1.612
		c-0.482-0.484-1.021-0.899-1.613-1.247c-0.592-0.347-1.228-0.616-1.904-0.807c-0.678-0.189-1.383-0.285-2.109-0.285
		C13.902,1.021,12.863,1.229,11.891,1.647z M11.067,5.039c0.504-0.504,1.095-0.903,1.773-1.197c0.68-0.293,1.404-0.44,2.174-0.44
		c0.771,0,1.492,0.147,2.172,0.44c0.678,0.293,1.271,0.693,1.773,1.197c0.507,0.505,0.904,1.098,1.199,1.78
		c0.295,0.682,0.439,1.408,0.439,2.177c0,0.768-0.146,1.493-0.439,2.171c-0.293,0.678-0.693,1.27-1.199,1.774
		c-0.504,0.504-1.094,0.901-1.773,1.195c-0.679,0.295-1.401,0.44-2.172,0.44c-0.77,0-1.494-0.146-2.174-0.44
		c-0.678-0.294-1.269-0.691-1.773-1.195c-0.505-0.505-0.904-1.097-1.199-1.774c-0.294-0.678-0.439-1.401-0.439-2.171
		s0.147-1.495,0.439-2.177C10.162,6.137,10.562,5.544,11.067,5.039z"/>
</g>
</svg>
