<?xml version="1.0" encoding="utf-8"?>
<!-- Generator: Adobe Illustrator 15.0.2, SVG Export Plug-In . SVG Version: 6.00 Build 0)  -->
<!DOCTYPE svg PUBLIC "-//W3C//DTD SVG 1.1//EN" "http://www.w3.org/Graphics/SVG/1.1/DTD/svg11.dtd">
<svg version="1.1" id="Calque_1" xmlns="http://www.w3.org/2000/svg" xmlns:xlink="http://www.w3.org/1999/xlink" x="0px" y="0px"
	 width="96px" height="24.275px" viewBox="0 0 96 24.275" enable-background="new 0 0 96 24.275" xml:space="preserve">
<rect x="-2.917" y="-7.613" fill="#EEEBE8" width="109.083" height="40.75"/>
<rect x="20" y="0" fill="#EEEBE8" width="4" height="24.275"/>
<rect x="23" y="0" fill="#1DA9B6" width="1" height="24.275"/>
<rect x="20" y="0" fill="#1DA9B6" width="1" height="24.275"/>
<g>
	<g>
		<rect x="68.206" y="0" fill="#EEEBE8" width="3.757" height="24.275"/>
	</g>
</g>
<path fill="#1DA9B6" d="M48,4.035C48,2.359,49.357,1,51.034,1h16.931v1H51.034C49.912,2,49,2.914,49,4.035l0,0v15.93
	C49,21.087,49.912,22,51.034,22h16.931v1H51.034C49.357,23,48,21.641,48,19.965V4.035"/>
<path fill="#1DA9B6" d="M68.965,24.275h-1v-1.271L67.447,23l0.016-1l1.01,0.021c0.273,0.005,0.492,0.228,0.492,0.5V24.275z"/>
<path fill="#1DA9B6" d="M68.48,1.99h-1.328v-1h0.828V0h1v1.49C68.98,1.766,68.757,1.99,68.48,1.99z"/>
<rect x="70.949" y="0" fill="#1DA9B6" width="1" height="24.275"/>
<g>
	<rect x="44.516" y="0" fill="#EEEBE8" width="3.484" height="24.275"/>
</g>
<rect x="46.984" y="0" fill="#1DA9B6" width="1" height="24.275"/>
<g id="Effet_NoPatch">
</g>
<rect x="92" y="0" fill="#EEEBE8" width="4" height="24.275"/>
<rect x="95" y="0" fill="#1DA9B6" width="1" height="24.275"/>
<rect x="92" y="0" fill="#1DA9B6" width="1" height="24.275"/>
<polygon fill="#1DA9B6" points="44.016,0 44.016,22.009 43.499,22 43.482,23 44,23.009 44,24.275 45,24.275 45,23 45.016,23 
	45.016,0 "/>
<g>
	<path fill="#EEEBE8" d="M46.258,21.988c0,0-0.37,0.012-0.827,0.012H25.834c-0.458,0-0.827-1.181-0.827-2.641V4.63
		c0-1.458,0.371-2.64,0.827-2.64h19.597c0.458,0,0.827,0,0.827,0v17.369V21.988L46.258,21.988z"/>
</g>
<path fill="#1DA9B6" d="M24,4.034c0-1.677,1.366-3.035,3.054-3.035h17.041v1H27.054c-1.129,0-2.047,0.914-2.047,2.035l0,0v15.931
	c0,1.121,0.918,2.035,2.047,2.035h17.041v1H27.054C25.366,23,24,21.641,24,19.965V4.034"/>
<path fill="#EEEBE8" d="M48.697,4.025v15.929c0,1.12,0.859,2.034,1.914,2.034H67.71c1.056,0,1.915,0,1.915,0V1.999
	c0,0-0.859-0.009-1.915-0.009H50.611C49.557,1.988,48.697,2.9,48.697,4.025L48.697,4.025z"/>
<linearGradient id="SVGID_1_" gradientUnits="userSpaceOnUse" x1="1082.6807" y1="-852.9124" x2="1082.6807" y2="-872.79" gradientTransform="matrix(1 0 0 -1 -1023.9844 -856.6821)">
	<stop  offset="0.006" style="stop-color:#FFFFFE"/>
	<stop  offset="1" style="stop-color:#FFFFFE;stop-opacity:0"/>
</linearGradient>
<path fill="url(#SVGID_1_)" d="M48.697,12.957V5.025c0-2.505,0.813-3.035,2.992-3.035h17.006c0,0,0,0.834,0,3.035v7.932"/>
<g id="Effet_NoPatch_3_">
</g>
</svg>
