<?xml version="1.0" encoding="utf-8"?>
<!-- Generator: Adobe Illustrator 15.0.0, SVG Export Plug-In . SVG Version: 6.00 Build 0)  -->
<!DOCTYPE svg PUBLIC "-//W3C//DTD SVG 1.1//EN" "http://www.w3.org/Graphics/SVG/1.1/DTD/svg11.dtd">
<svg version="1.1" id="Calque_1" xmlns="http://www.w3.org/2000/svg" xmlns:xlink="http://www.w3.org/1999/xlink" x="0px" y="0px"
	 width="160px" height="24px" viewBox="0 0 160 24" enable-background="new 0 0 160 24" xml:space="preserve">
<rect x="0" y="0" opacity="0.7" fill="#EEEBE8" width="160" height="24"/>
<g>
	<path fill="#EEEBE8" d="M82.566,0h74.865C158.85,0,160,1.187,160,2.646v18.711c0,1.457-1.148,2.644-2.566,2.644H82.566
		C81.148,24,80,22.813,80,21.355V2.646C80,1.187,81.148,0,82.566,0L82.566,0z"/>
	
		<linearGradient id="SVGID_1_" gradientUnits="userSpaceOnUse" x1="581.9609" y1="-254.314" x2="581.9609" y2="-276.0023" gradientTransform="matrix(-1 0 0 1 701.9609 284.5996)">
		<stop  offset="0.006" style="stop-color:#FFFFFE"/>
		<stop  offset="1" style="stop-color:#FFFFFE;stop-opacity:0"/>
	</linearGradient>
	<path fill="url(#SVGID_1_)" d="M160,12.035v8.652c0,2.734-0.865,3.313-3.195,3.313H83.195C80.539,24,80,23.091,80,20.688v-8.652"/>
	<g id="Effet_NoPatch">
	</g>
</g>
</svg>
