<?xml version="1.0" encoding="utf-8"?>
<!-- Generator: Adobe Illustrator 15.0.0, SVG Export Plug-In . SVG Version: 6.00 Build 0)  -->
<!DOCTYPE svg PUBLIC "-//W3C//DTD SVG 1.1//EN" "http://www.w3.org/Graphics/SVG/1.1/DTD/svg11.dtd">
<svg version="1.1" id="Calque_1" xmlns="http://www.w3.org/2000/svg" xmlns:xlink="http://www.w3.org/1999/xlink" x="0px" y="0px"
	 width="36px" height="36px" viewBox="0 0 36 36" enable-background="new 0 0 36 36" xml:space="preserve">
<g>
	<path fill="#EEEBE8" d="M28.266,30.132H7.732c-1.029,0-1.864-0.838-1.864-1.866V7.729c0-1.026,0.834-1.861,1.864-1.861h20.534
		c1.028,0,1.865,0.834,1.865,1.861v20.537C30.131,29.294,29.294,30.132,28.266,30.132L28.266,30.132z"/>
	<path fill="#C0C0C0" d="M28.266,5.5c1.237,0,2.234,0.997,2.234,2.23v20.536c0,1.237-0.997,2.234-2.234,2.234H7.731
		c-1.232,0-2.231-0.997-2.231-2.234V7.73c0-1.233,0.999-2.23,2.231-2.23H28.266 M28.266,6.236H7.731
		c-0.823,0-1.495,0.67-1.495,1.494v20.536c0,0.83,0.671,1.498,1.495,1.498h20.535c0.83,0,1.498-0.668,1.498-1.498V7.73
		C29.764,6.907,29.096,6.236,28.266,6.236L28.266,6.236z"/>
	
		<linearGradient id="SVGID_1_" gradientUnits="userSpaceOnUse" x1="1541.8398" y1="1128.4707" x2="1541.8398" y2="1149.7468" gradientTransform="matrix(1 0 0 1 -1523.8398 -1128.3984)">
		<stop  offset="0.006" style="stop-color:#FFFFFE"/>
		<stop  offset="1" style="stop-color:#FFFFFE;stop-opacity:0"/>
	</linearGradient>
	<path fill="url(#SVGID_1_)" d="M6.236,17.975V8.467c0-1.843,0.62-2.231,2.289-2.231h18.95c1.903,0,2.289,0.613,2.289,2.231v9.507"
		/>
	<path fill="#24CFDE" d="M28.266,6.236c0.83,0,1.498,0.67,1.498,1.494v20.536c0,0.83-0.668,1.498-1.498,1.498H7.731
		c-0.823,0-1.495-0.668-1.495-1.498V7.73c0-0.823,0.671-1.494,1.495-1.494H28.266 M28.266,5.5H7.731C6.499,5.5,5.5,6.497,5.5,7.73
		v20.536c0,1.237,0.999,2.234,2.231,2.234h20.535c1.237,0,2.234-0.997,2.234-2.234V7.73C30.5,6.497,29.503,5.5,28.266,5.5
		L28.266,5.5z"/>
	<g id="Effet_NoPatch">
	</g>
</g>
<polygon fill="#808090" points="21.418,25.236 21.418,12.236 11.111,18.736 "/>
</svg>
