<?xml version="1.0" encoding="utf-8"?>
<!-- Generator: Adobe Illustrator 15.0.0, SVG Export Plug-In . SVG Version: 6.00 Build 0)  -->
<!DOCTYPE svg PUBLIC "-//W3C//DTD SVG 1.1//EN" "http://www.w3.org/Graphics/SVG/1.1/DTD/svg11.dtd">
<svg version="1.1" id="Calque_1" xmlns="http://www.w3.org/2000/svg" xmlns:xlink="http://www.w3.org/1999/xlink" x="0px" y="0px"
	 width="384px" height="45px" viewBox="0 0 384 45" enable-background="new 0 0 384 45" xml:space="preserve">
<rect fill="#FFFFFF" width="384" height="15"/>
<rect fill="#FFFFFF" width="16" height="15"/>
<rect x="80" fill="#FFFFFF" width="16" height="15"/>
<rect x="96" fill="#FFFFFF" width="16" height="15"/>
<rect x="176" fill="#FFFFFF" width="16" height="15"/>
<rect x="192" fill="#FFFFFF" width="16" height="15"/>
<rect x="272" fill="#FFFFFF" width="16" height="15"/>
<rect x="288" fill="#FFFFFF" width="16" height="15"/>
<rect x="368" fill="#FFFFFF" width="16" height="15"/>
<rect x="6.125" y="15.507" fill="#2D2D2D" width="1.448" height="8.988"/>
<rect x="2.425" y="18.75" fill="#2D2D2D" width="1.448" height="2.542"/>
<rect x="16.125" y="15.527" fill="#2D2D2D" width="1.448" height="8.989"/>
<rect x="12.425" y="18.77" fill="#2D2D2D" width="1.448" height="2.542"/>
<rect x="26.125" y="15.506" fill="#2D2D2D" width="1.448" height="8.988"/>
<rect x="22.425" y="18.75" fill="#2D2D2D" width="1.448" height="2.542"/>
<rect x="36.125" y="15.547" fill="#2D2D2D" width="1.448" height="8.988"/>
<rect x="32.425" y="18.79" fill="#2D2D2D" width="1.448" height="2.542"/>
<rect x="32.425" y="35.525" fill="#2D2D2D" width="1.448" height="8.988"/>
<rect x="36.125" y="38.729" fill="#2D2D2D" width="1.448" height="2.543"/>
<rect x="22.425" y="35.505" fill="#2D2D2D" width="1.448" height="8.989"/>
<rect x="26.125" y="38.709" fill="#2D2D2D" width="1.448" height="2.543"/>
<rect x="12.425" y="35.525" fill="#2D2D2D" width="1.448" height="8.988"/>
<rect x="16.125" y="38.729" fill="#2D2D2D" width="1.448" height="2.541"/>
<rect x="2.425" y="35.484" fill="#2D2D2D" width="1.448" height="8.988"/>
<rect x="6.125" y="38.688" fill="#2D2D2D" width="1.448" height="2.543"/>
<g>
	<rect x="48" fill="#2D2D2D" width="32" height="1"/>
	<rect x="48" y="14" fill="#2D2D2D" width="32" height="1"/>
</g>
<g>
	<rect x="144" fill="#2D2D2D" width="32" height="1"/>
	<rect x="144" y="14" fill="#2D2D2D" width="32" height="1"/>
</g>
<g>
	<rect x="240" fill="#2D2D2D" width="32" height="1"/>
	<rect x="240" y="14" fill="#2D2D2D" width="32" height="1"/>
</g>
<g>
	<rect x="336" fill="#2D2D2D" width="32" height="1"/>
	<rect x="336" y="14" fill="#2D2D2D" width="32" height="1"/>
</g>
</svg>
