<?xml version="1.0" encoding="utf-8"?>
<!-- Generator: Adobe Illustrator 15.0.0, SVG Export Plug-In . SVG Version: 6.00 Build 0)  -->
<!DOCTYPE svg PUBLIC "-//W3C//DTD SVG 1.1//EN" "http://www.w3.org/Graphics/SVG/1.1/DTD/svg11.dtd">
<svg version="1.1" id="Calque_1" xmlns="http://www.w3.org/2000/svg" xmlns:xlink="http://www.w3.org/1999/xlink" x="0px" y="0px"
	 width="384px" height="45px" viewBox="0 0 384 45" enable-background="new 0 0 384 45" xml:space="preserve">
<rect fill="#FFFFFF" width="384" height="15"/>
<rect fill="#FFFFFF" width="16" height="15"/>
<rect x="80" fill="#FFFFFF" width="16" height="15"/>
<rect x="96" fill="#FFFFFF" width="16" height="15"/>
<rect x="176" fill="#FFFFFF" width="16" height="15"/>
<rect x="192" fill="#FFFFFF" width="16" height="15"/>
<rect x="272" fill="#FFFFFF" width="16" height="15"/>
<rect x="288" fill="#FFFFFF" width="16" height="15"/>
<rect x="368" fill="#FFFFFF" width="16" height="15"/>
<polygon fill="#808090" points="2.426,35.506 2.426,44.494 7.574,40 "/>
<polygon fill="#808090" points="7.573,24.495 7.573,15.507 2.425,20.001 "/>
<polygon fill="#808090" points="17.573,24.496 17.573,15.508 12.425,20.002 "/>
<polygon fill="#808090" points="27.573,24.495 27.573,15.507 22.425,20.001 "/>
<polygon fill="#808090" points="37.573,24.495 37.573,15.507 32.425,20.001 "/>
<polygon fill="#808090" points="12.425,35.506 12.425,44.494 17.573,40 "/>
<polygon fill="#808090" points="22.425,35.506 22.425,44.494 27.573,40 "/>
<polygon fill="#808090" points="32.425,35.506 32.425,44.494 37.573,40 "/>
<g id="Effet_NoPatch">
</g>
<g>
	<rect x="48" fill="#EEEBE8" width="32" height="15"/>
	<linearGradient id="SVGID_1_" gradientUnits="userSpaceOnUse" x1="64" y1="-3.6587" x2="64" y2="8.9671">
		<stop  offset="0.006" style="stop-color:#FFFFFE"/>
		<stop  offset="1" style="stop-color:#FFFFFE;stop-opacity:0"/>
	</linearGradient>
	<rect x="48" fill="url(#SVGID_1_)" width="32" height="6.966"/>
</g>
<g>
	<rect x="144" fill="#EEEBE8" width="32" height="15"/>
	<linearGradient id="SVGID_2_" gradientUnits="userSpaceOnUse" x1="159.9995" y1="-3.6587" x2="159.9995" y2="8.9671">
		<stop  offset="0.006" style="stop-color:#FFFFFE"/>
		<stop  offset="1" style="stop-color:#FFFFFE;stop-opacity:0"/>
	</linearGradient>
	<rect x="144" fill="url(#SVGID_2_)" width="32" height="6.966"/>
</g>
<g>
	<rect x="239.999" fill="#EEEBE8" width="32" height="15"/>
	<linearGradient id="SVGID_3_" gradientUnits="userSpaceOnUse" x1="255.999" y1="-3.6587" x2="255.999" y2="8.9671">
		<stop  offset="0.006" style="stop-color:#FFFFFE"/>
		<stop  offset="1" style="stop-color:#FFFFFE;stop-opacity:0"/>
	</linearGradient>
	<rect x="239.999" fill="url(#SVGID_3_)" width="32" height="6.966"/>
</g>
<g>
	<rect x="336" fill="#EEEBE8" width="32" height="15"/>
	<linearGradient id="SVGID_4_" gradientUnits="userSpaceOnUse" x1="352" y1="-3.6587" x2="352" y2="8.9671">
		<stop  offset="0.006" style="stop-color:#FFFFFE"/>
		<stop  offset="1" style="stop-color:#FFFFFE;stop-opacity:0"/>
	</linearGradient>
	<rect x="336" fill="url(#SVGID_4_)" width="32" height="6.966"/>
</g>
</svg>
